#!OML:ASF E:\CV Data\Top Level 1\Subject 1\Session 1\player.ASF
:FULLY-SPECIFIED
:DEGREES
617
root -2.02624 17.7624 -6.08153 -18.2497 80.7553 -32.0665
lowerback 14.4519 0.233483 9.65044
upperback 6.341 2.06558 4.11527
thorax -1.17925 1.29785 -1.40733
lowerneck -12.2465 -6.21036 -11.5528
upperneck 43.517 -3.6665 1.03341
head 19.1008 -2.54041 2.10552
rclavicle 1.98785e-014 1.74931e-014
rhumerus 10.4023 23.263 -90.9673
rradius 50.0347
rwrist -49.5018
rhand -27.1689 -1.2656
rfingers 7.12502
rthumb -0.583265 -31.2445
lclavicle 1.98785e-014 1.74931e-014
lhumerus 3.99033 -12.6996 93.4077
lradius 60.3257
lwrist 40.6918
lhand -25.643 29.3228
lfingers 7.12502
lthumb 0.890541 59.3007
rfemur -29.9723 -2.05435 22.1717
rtibia 31.2372
rfoot -11.2992 -9.56217
rtoes 3.32213
lfemur -23.8382 1.34262 -6.09213
ltibia 29.5943
lfoot -8.13908 10.1174
ltoes -4.68296
618
root -2.04097 17.7628 -6.1421 -19.2961 80.8706 -33.1132
lowerback 14.4099 0.265321 9.62785
upperback 6.35552 2.09762 4.1003
thorax -1.13885 1.31577 -1.41384
lowerneck -12.2516 -6.23968 -11.5334
upperneck 43.5298 -3.73199 1.08355
head 19.1167 -2.55581 2.1142
rclavicle 1.27222e-014 4.21423e-014
rhumerus 10.2492 23.1459 -90.9958
rradius 49.9595
rwrist -49.7394
rhand -27.2299 -1.20406
rfingers 7.12502
rthumb -0.64217 -31.1828
lclavicle 1.27222e-014 4.21423e-014
lhumerus 4.07594 -13.0105 93.3017
lradius 60.23
lwrist 40.6675
lhand -25.6796 29.3911
lfingers 7.12502
lthumb 0.855152 59.3691
rfemur -29.9144 -2.16017 22.0579
rtibia 31.0262
rfoot -11.112 -9.62913
rtoes 3.12146
lfemur -24.0416 1.57297 -6.27441
ltibia 29.703
lfoot -8.29957 9.89037
ltoes -4.37907
619
root -2.05586 17.762 -6.20491 -20.3564 80.9765 -34.163
lowerback 14.3763 0.296083 9.60792
upperback 6.36913 2.13022 4.09084
thorax -1.10393 1.33378 -1.41627
lowerneck -12.2552 -6.27039 -11.5252
upperneck 43.5418 -3.79542 1.13163
head 19.1323 -2.57244 2.12427
rclavicle 1.03368e-014 3.73715e-014
rhumerus 10.0814 23.0298 -91.0129
rradius 49.8859
rwrist -50.0304
rhand -27.3042 -1.13442
rfingers 7.12502
rthumb -0.713884 -31.113
lclavicle 1.03368e-014 3.73715e-014
lhumerus 4.1472 -13.3234 93.2128
lradius 60.1284
lwrist 40.6153
lhand -25.695 29.4687
lfingers 7.12502
lthumb 0.840284 59.4468
rfemur -29.8534 -2.26462 21.9358
rtibia 30.8282
rfoot -10.9266 -9.69715
rtoes 2.90476
lfemur -24.2429 1.79476 -6.46529
ltibia 29.83
lfoot -8.45731 9.67156
ltoes -4.17393
620
root -2.07091 17.7604 -6.27019 -21.4589 81.0775 -35.2411
lowerback 14.3536 0.315266 9.58675
upperback 6.38147 2.15006 4.09488
thorax -1.07811 1.34511 -1.40232
lowerneck -12.2549 -6.2953 -11.5389
upperneck 43.5501 -3.83999 1.17061
head 19.144 -2.58643 2.13739
rclavicle -4.53229e-014 -1.35174e-014
rhumerus 9.89992 22.9545 -91.0089
rradius 49.8152
rwrist -50.384
rhand -27.3771 -1.06692
rfingers 7.12502
rthumb -0.784275 -31.0452
lclavicle -4.53229e-014 -1.35174e-014
lhumerus 4.19925 -13.6048 93.1486
lradius 60.0242
lwrist 40.5333
lhand -25.6973 29.5504
lfingers 7.12502
lthumb 0.83815 59.5285
rfemur -29.7831 -2.36821 21.8052
rtibia 30.6403
rfoot -10.7432 -9.77008
rtoes 2.67513
lfemur -24.4397 1.98065 -6.65581
ltibia 29.9769
lfoot -8.61847 9.46689
ltoes -4.01928
621
root -2.08605 17.7578 -6.33701 -22.5964 81.1578 -36.3396
lowerback 14.3411 0.334211 9.57129
upperback 6.39413 2.17194 4.10156
thorax -1.05705 1.35741 -1.38926
lowerneck -12.2453 -6.31868 -11.5568
upperneck 43.554 -3.88247 1.20903
head 19.1503 -2.60029 2.15144
rclavicle 3.97569e-014 4.37326e-014
rhumerus 9.7037 22.868 -91.0137
rradius 49.7537
rwrist -50.7685
rhand -27.4112 -1.03028
rfingers 7.12502
rthumb -0.817265 -31.0085
lclavicle 3.97569e-014 4.37326e-014
lhumerus 4.23396 -13.888 93.0935
lradius 59.9233
lwrist 40.4339
lhand -25.7036 29.6386
lfingers 7.12502
lthumb 0.832053 59.6167
rfemur -29.7009 -2.45218 21.675
rtibia 30.4612
rfoot -10.5635 -9.85233
rtoes 2.43821
lfemur -24.6238 2.14784 -6.83486
ltibia 30.1425
lfoot -8.78443 9.27014
ltoes -3.9534
622
root -2.10152 17.7544 -6.40669 -23.771 81.2349 -37.4694
lowerback 14.3308 0.341721 9.56556
upperback 6.40315 2.18091 4.11192
thorax -1.04189 1.36315 -1.37599
lowerneck -12.2275 -6.33726 -11.5786
upperneck 43.5547 -3.91389 1.23792
head 19.1513 -2.6117 2.1637
rclavicle -6.36111e-015 4.29375e-014
rhumerus 9.49076 22.7826 -91.0257
rradius 49.7113
rwrist -51.1591
rhand -27.4277 -1.01621
rfingers 7.12502
rthumb -0.833143 -30.9943
lclavicle -6.36111e-015 4.29375e-014
lhumerus 4.24988 -14.1527 93.0507
lradius 59.8319
lwrist 40.3328
lhand -25.7173 29.7376
lfingers 7.12502
lthumb 0.818782 59.7158
rfemur -29.6192 -2.53538 21.5357
rtibia 30.2899
rfoot -10.3809 -9.94073
rtoes 2.18956
lfemur -24.8141 2.28124 -7.01397
ltibia 30.3261
lfoot -8.95852 9.08626
ltoes -3.89022
